<?xml version="1.0" standalone="no"?>
<!DOCTYPE svg PUBLIC "-//W3C//DTD SVG 20010904//EN"
 "http://www.w3.org/TR/2001/REC-SVG-20010904/DTD/svg10.dtd">
<svg version="1.0" xmlns="http://www.w3.org/2000/svg"
 width="512.000000pt" height="512.000000pt" viewBox="0 0 512.000000 512.000000"
 preserveAspectRatio="xMidYMid meet">
<metadata>
Created by potrace 1.14, written by Peter Selinger 2001-2017
</metadata>
<g transform="translate(0.000000,512.000000) scale(0.100000,-0.100000)"
fill="#000000" stroke="none">
<path d="M0 2560 l0 -2560 2560 0 2560 0 0 2560 0 2560 -2560 0 -2560 0 0
-2560z m1567 839 c67 -25 108 -94 173 -290 64 -193 190 -669 235 -887 4 -19
11 -30 15 -25 15 15 98 247 194 543 101 310 166 460 235 548 82 104 183 120
264 44 65 -61 92 -160 132 -471 32 -243 149 -831 166 -831 4 0 43 89 87 198
165 406 257 652 304 817 79 275 131 354 242 363 69 6 118 -11 154 -53 50 -56
50 -96 2 -221 -23 -60 -59 -164 -81 -232 -45 -138 -114 -306 -279 -682 -61
-140 -141 -327 -177 -415 -82 -201 -138 -310 -172 -334 -66 -46 -153 -51 -229
-12 -56 29 -68 47 -111 176 -38 113 -80 308 -161 750 -17 94 -33 177 -36 185
-3 8 -27 -43 -53 -115 -26 -71 -65 -168 -86 -215 -181 -407 -206 -477 -208
-580 -3 -92 -19 -119 -90 -155 -126 -63 -286 -4 -311 115 -2 14 -19 84 -35
155 -17 72 -56 237 -86 368 -70 301 -124 478 -289 955 -25 73 -46 148 -46 166
0 40 34 93 79 123 38 26 118 31 168 12z"/>
</g>
</svg>
